<?xml version="1.0" encoding="utf-8"?>
<!-- Generator: Adobe Illustrator 26.0.1, SVG Export Plug-In . SVG Version: 6.00 Build 0)  -->
<svg version="1.1" id="Layer_1" xmlns="http://www.w3.org/2000/svg" xmlns:xlink="http://www.w3.org/1999/xlink" x="0px" y="0px"
	 viewBox="0 0 134 43" style="enable-background:new 0 0 134 43;" xml:space="preserve">
<style type="text/css">
	.st0{fill:#BFCADA;}
	.st1{fill:#89A1BD;}
	.st2{fill:#231F20;}
	.st3{fill:#5881A5;}
	.st4{fill:#0D2D49;}
	.st5{fill:none;}
	.st6{fill:url(#SVGID_1_);}
	.st7{fill:#EAA421;}
	.st8{fill:#F0B85A;}
</style>
<g>
	<g>
		<path class="st0" d="M51.34,16.58v12.54c0,0.63,0.08,1.1,0.25,1.42c0.17,0.32,0.39,0.52,0.66,0.63c0.27,0.1,0.54,0.15,0.81,0.15
			c0.18,0,0.34-0.03,0.49-0.08c0.15-0.06,0.31-0.08,0.49-0.08c0.2,0,0.38,0.08,0.52,0.24c0.15,0.16,0.22,0.36,0.22,0.61
			c0,0.32-0.18,0.58-0.54,0.79c-0.36,0.21-0.79,0.32-1.28,0.32c-0.2,0-0.51-0.02-0.91-0.05c-0.4-0.03-0.82-0.16-1.25-0.37
			c-0.43-0.21-0.78-0.59-1.06-1.13c-0.28-0.54-0.42-1.32-0.42-2.33V16.58h-2.47c-0.27,0-0.5-0.09-0.69-0.29
			c-0.19-0.19-0.29-0.41-0.29-0.66c0-0.27,0.1-0.5,0.29-0.67c0.19-0.18,0.42-0.27,0.69-0.27h2.47v-2.53c0-0.27,0.09-0.51,0.29-0.71
			c0.19-0.2,0.43-0.31,0.73-0.31c0.29,0,0.54,0.1,0.73,0.31c0.19,0.2,0.29,0.44,0.29,0.71v2.53h3.38c0.27,0,0.5,0.1,0.68,0.29
			c0.18,0.19,0.27,0.42,0.27,0.69c0,0.25-0.09,0.46-0.27,0.64c-0.18,0.18-0.41,0.27-0.68,0.27H51.34z"/>
		<path class="st0" d="M61.37,32.09c0,0.27-0.1,0.51-0.3,0.71c-0.2,0.2-0.44,0.3-0.71,0.3c-0.29,0-0.54-0.1-0.73-0.3
			c-0.19-0.2-0.29-0.44-0.29-0.71V16.55c0-0.27,0.1-0.51,0.29-0.71c0.19-0.2,0.43-0.3,0.73-0.3c0.29,0,0.53,0.1,0.73,0.3
			c0.19,0.2,0.29,0.44,0.29,0.71V32.09z"/>
		<path class="st0" d="M81.74,18.93c-0.7-1.32-1.64-2.35-2.82-3.11c-1.18-0.75-2.54-1.13-4.07-1.13c-0.77,0-1.5,0.1-2.2,0.3
			c-0.7,0.2-1.34,0.5-1.93,0.9c-0.59,0.4-1.1,0.87-1.54,1.42c-0.2,0.25-0.37,0.51-0.52,0.78v-2.29c0-0.29-0.1-0.54-0.29-0.74
			c-0.19-0.2-0.43-0.3-0.72-0.3c-0.32,0-0.56,0.1-0.74,0.3c-0.18,0.2-0.27,0.45-0.27,0.74v22.81c0,0.27,0.09,0.51,0.29,0.71
			c0.19,0.2,0.43,0.3,0.73,0.3c0.29,0,0.54-0.1,0.72-0.3c0.19-0.2,0.29-0.44,0.29-0.71v-8.91c0.15,0.22,0.3,0.44,0.47,0.65
			c0.45,0.55,0.97,1.03,1.55,1.43c0.59,0.41,1.23,0.73,1.94,0.96c0.71,0.24,1.46,0.35,2.25,0.35c1.49,0,2.83-0.38,4.02-1.15
			c1.19-0.77,2.14-1.81,2.84-3.14c0.7-1.33,1.05-3.63,1.05-5.34C82.79,21.76,82.44,20.25,81.74,18.93z M80.02,27.84
			c-0.54,1.06-1.27,1.89-2.18,2.48c-0.91,0.6-1.97,0.9-3.16,0.9c-1.22,0-2.29-0.3-3.21-0.9c-0.92-0.6-1.65-1.42-2.18-2.48
			c-0.53-1.06-0.79-3.03-0.79-4.36c0-1.35,0.26-2.54,0.79-3.56c0.53-1.03,1.26-1.84,2.18-2.43c0.92-0.6,1.99-0.9,3.21-0.9
			c1.19,0,2.25,0.3,3.16,0.9c0.91,0.6,1.64,1.41,2.18,2.45c0.54,1.04,0.81,2.22,0.81,3.55C80.83,24.81,80.56,26.78,80.02,27.84z"/>
		<path class="st0" d="M113.27,22.39v8.65c0,0.59-0.19,1.07-0.58,1.47c-0.38,0.4-0.87,0.59-1.45,0.59c-0.59,0-1.07-0.2-1.45-0.59
			c-0.38-0.39-0.57-0.88-0.57-1.47v-8.65c0-0.74-0.09-1.41-0.27-2.01c-0.18-0.6-0.51-1.07-0.98-1.43c-0.47-0.36-1.15-0.54-2.03-0.54
			c-0.86,0-1.59,0.18-2.2,0.54c-0.61,0.36-1.06,0.84-1.37,1.43c-0.3,0.6-0.46,1.27-0.46,2.01v8.65c0,0.59-0.19,1.07-0.58,1.47
			c-0.38,0.4-0.87,0.59-1.45,0.59c-0.59,0-1.07-0.2-1.45-0.59c-0.38-0.39-0.58-0.88-0.58-1.47v-8.65c0-0.74-0.09-1.41-0.27-2.01
			c-0.18-0.6-0.51-1.07-0.98-1.43c-0.47-0.36-1.15-0.54-2.03-0.54c-0.86,0-1.59,0.18-2.2,0.54c-0.61,0.36-1.06,0.84-1.37,1.43
			c-0.3,0.6-0.46,1.27-0.46,2.01v2.71c0,0.59-0.19,1.07-0.57,1.47c-0.38,0.4-0.87,0.59-1.45,0.59c-0.59,0-1.07-0.2-1.45-0.59
			c-0.38-0.39-0.58-0.88-0.58-1.47v-8.01c0-0.59,0.19-1.08,0.58-1.47c0.38-0.39,0.87-0.59,1.45-0.59c0.59,0,1.07,0.2,1.45,0.59
			c0.38,0.39,0.57,0.88,0.57,1.47v0.56c0.1-0.14,0.22-0.29,0.34-0.44c0.36-0.44,0.8-0.85,1.32-1.23c0.52-0.38,1.09-0.69,1.72-0.93
			c0.63-0.24,1.32-0.35,2.06-0.35c1.8,0,3.13,0.43,3.99,1.3c0.65,0.66,1.13,1.46,1.44,2.41c0.27-0.49,0.67-1.01,1.19-1.57
			c0.56-0.6,1.24-1.1,2.04-1.52c0.8-0.42,1.69-0.63,2.69-0.63c1.62,0,2.85,0.35,3.7,1.05c0.84,0.7,1.42,1.63,1.74,2.79
			C113.11,19.69,113.27,20.98,113.27,22.39z"/>
		<path class="st0" d="M133.18,20.2c-0.46-1.08-1.09-2.03-1.88-2.85c-0.79-0.82-1.7-1.47-2.72-1.94c-1.03-0.47-2.11-0.71-3.26-0.71
			c-1.49,0-2.89,0.38-4.22,1.15c-1.33,0.77-2.41,1.86-3.23,3.3c-0.82,1.43-1.23,3.16-1.23,5.18c0,1.74,0.38,2.95,1.13,4.33
			c0.75,1.37,1.84,2.46,3.24,3.26c1.41,0.8,3.07,1.2,4.98,1.2c1.13,0,2.22-0.19,3.28-0.56c1.06-0.37,1.88-0.8,2.47-1.3
			c0.63-0.5,0.95-1.05,0.95-1.66c0-0.45-0.16-0.84-0.49-1.18c-0.33-0.34-0.74-0.51-1.23-0.51c-0.36,0-0.74,0.1-1.15,0.31
			c-0.25,0.13-0.52,0.3-0.83,0.49c-0.3,0.19-0.7,0.36-1.2,0.49c-0.5,0.13-1.16,0.2-1.99,0.2c-0.9,0-1.75-0.22-2.55-0.66
			c-0.8-0.44-1.45-1.08-1.96-1.93c-0.27-0.45-0.47-0.86-0.6-1.33h11.12c0.54,0,1.01-0.17,1.42-0.51c0.4-0.34,0.62-0.78,0.64-1.32
			C133.87,22.43,133.64,21.28,133.18,20.2z M120.9,21.31c0.25-0.72,0.59-1.29,1.01-1.72c0.43-0.43,0.94-0.73,1.52-0.91
			c0.59-0.18,1.22-0.27,1.89-0.27c0.7,0,1.36,0.15,1.98,0.46c0.62,0.3,1.14,0.71,1.55,1.23c0.42,0.52,0.65,1.1,0.69,1.76v0.24h-8.85
			C120.75,21.81,120.82,21.55,120.9,21.31z"/>
		<circle class="st0" cx="60.36" cy="12.15" r="1.01"/>
		<circle class="st0" cx="88.53" cy="31.07" r="2.04"/>
	</g>
	<g>
		<g>
			<path class="st0" d="M36.68,16.35v13.97c0,0.13,0,0.26-0.01,0.38c-0.13,2.13-1.34,3.99-3.23,4.98L21.3,42.06
				c-0.87,0.45-1.84,0.69-2.81,0.69s-1.95-0.24-2.82-0.69L3.52,35.68c-1.89-0.99-3.1-2.85-3.23-4.98c-0.01-0.12-0.01-0.25-0.01-0.38
				V16.35c0-2.26,1.24-4.31,3.24-5.36l5.44-2.85c0.37-2.08,1.41-3.98,2.99-5.43c1.79-1.64,4.11-2.54,6.53-2.54s4.74,0.9,6.53,2.54
				c1.58,1.45,2.62,3.35,2.99,5.43l5.44,2.85C35.44,12.03,36.68,14.09,36.68,16.35z"/>
		</g>
		<g>
			<path class="st1" d="M35.22,16.35v13.97c0,0.09,0,0.19-0.01,0.28c-0.1,1.6-1.02,3.04-2.45,3.79l-12.15,6.38
				c-0.67,0.35-1.4,0.53-2.14,0.53c-0.74,0-1.47-0.18-2.14-0.53L4.19,34.4c-1.43-0.75-2.36-2.19-2.45-3.79
				c-0.01-0.09-0.01-0.19-0.01-0.28V16.35c0-1.72,0.94-3.28,2.46-4.07L16.34,5.9c1.34-0.7,2.94-0.7,4.28,0l12.15,6.38
				C34.28,13.07,35.22,14.63,35.22,16.35z"/>
		</g>
		<path class="st2" d="M10.7,11.49l-0.77,1.29l0.34,1.39l0.86,1.13l14.12,0.32c0,0,1.37-1.02,1.46-1.2
			c0.08-0.18,0.52-1.46,0.52-1.46l-0.85-0.84L10.7,11.49z"/>
		<polygon class="st0" points="2.79,14.69 2.5,30.61 3.23,32.81 17.94,40.39 18.48,23.33 14.23,20.14 3.59,14.69 		"/>
		<polygon class="st3" points="34.17,14.89 34.46,30.81 33.73,33.01 19.02,40.59 18.49,23.54 22.74,20.34 33.37,14.89 		"/>
		<g>
			<path class="st4" d="M8.11,28.79c-0.4,0-0.73-0.33-0.73-0.73v-3.03c0-0.4,0.33-0.73,0.73-0.73c0.4,0,0.73,0.33,0.73,0.73v3.03
				C8.84,28.46,8.51,28.79,8.11,28.79z"/>
		</g>
		<g>
			<path class="st4" d="M11.43,30.49c-0.4,0-0.73-0.33-0.73-0.73v-3.03c0-0.4,0.33-0.73,0.73-0.73s0.73,0.33,0.73,0.73v3.03
				C12.16,30.17,11.83,30.49,11.43,30.49z"/>
		</g>
		<g>
			<path class="st4" d="M32.77,12.27L20.63,5.9c-1.34-0.7-2.94-0.7-4.28,0L4.2,12.27c-1.52,0.8-2.46,2.36-2.46,4.07v13.97
				c0,0.09,0,0.19,0.01,0.28c0.1,1.6,1.02,3.04,2.45,3.79l12.15,6.38c0.67,0.35,1.4,0.53,2.14,0.53c0.73,0,1.47-0.18,2.14-0.53
				l12.15-6.38c1.43-0.75,2.36-2.19,2.45-3.79c0.01-0.09,0.01-0.19,0.01-0.28V16.35C35.23,14.63,34.29,13.07,32.77,12.27z
				 M4.88,33.1c-1.04-0.54-1.68-1.61-1.68-2.78v-13.1c0-1.35,0.26-1.53,0.26-1.53c0,0,0.16-0.07,0.69,0.19l11.74,6.21
				c0.75,0.4,1.88,1.51,1.88,2.95v14.72c-0.25-0.06-0.5-0.15-0.73-0.28L4.88,33.1z M18.49,22.6c-0.51-0.8-1.22-1.43-1.92-1.8
				L4.82,14.58c-0.01,0-0.01-0.01-0.02-0.01c-0.15-0.07-0.45-0.22-0.82-0.3c0.25-0.28,0.55-0.53,0.9-0.71l12.15-6.38
				c0.46-0.24,0.96-0.36,1.46-0.36c0.5,0,1,0.12,1.46,0.36l12.15,6.38c0.35,0.18,0.65,0.42,0.9,0.71c-0.36,0.08-0.67,0.23-0.82,0.3
				c-0.01,0-0.01,0.01-0.02,0.01L20.41,20.8C19.7,21.18,18.99,21.8,18.49,22.6z M33.78,30.32c0,1.17-0.65,2.24-1.68,2.78
				l-12.15,6.38c-0.23,0.12-0.48,0.21-0.73,0.28V25.04c0-1.43,1.12-2.55,1.87-2.95l11.74-6.21c0.52-0.25,0.69-0.19,0.69-0.19
				c0,0,0.26,0.18,0.26,1.53V30.32z"/>
		</g>
		<g>
			<path class="st2" d="M1.75,30.61c-0.01-0.04-0.01-0.07-0.01-0.11v-0.17C1.74,30.42,1.74,30.51,1.75,30.61z"/>
		</g>
		<path class="st5" d="M25.2,14.89c0.7,0,1.28-0.57,1.28-1.28c0-0.32-0.12-0.61-0.32-0.84c-0.29,0.76-0.69,1.47-1.2,2.11H25.2z"/>
		<linearGradient id="SVGID_1_" gradientUnits="userSpaceOnUse" x1="18.5284" y1="3.787" x2="18.4556" y2="14.2744">
			<stop  offset="0" style="stop-color:#F8E3C1"/>
			<stop  offset="0.4553" style="stop-color:#F6D8A7"/>
			<stop  offset="1" style="stop-color:#F4CC8C"/>
		</linearGradient>
		<path class="st6" d="M15.69,14.89h-1.68c-1.03-0.91-1.75-2.1-2.08-3.4c-0.03-0.13-0.06-0.27-0.09-0.41
			c-0.01-0.07-0.03-0.14-0.04-0.21c-0.01-0.07-0.02-0.14-0.03-0.21c-0.01-0.06-0.01-0.12-0.02-0.18c-0.01-0.05-0.01-0.11-0.01-0.16
			c0-0.04-0.01-0.08-0.01-0.13c0,0,0-0.01,0-0.01c0-0.06,0-0.12-0.01-0.17c0-0.06,0-0.12,0-0.18c0-3.73,3.03-6.76,6.76-6.76
			c3.73,0,6.76,3.03,6.76,6.76c0,0.57-0.07,1.12-0.21,1.66c0,0,0,0,0,0c-0.33,1.31-1.04,2.49-2.08,3.4h-1.68H15.69z"/>
		<path class="st7" d="M20.72,10.53c-0.09-0.22-0.23-0.4-0.42-0.54c-0.18-0.14-0.42-0.26-0.7-0.36c-0.14-0.05-0.29-0.09-0.46-0.13
			V7.8c0.13,0.04,0.26,0.09,0.39,0.15c0.17,0.08,0.3,0.16,0.4,0.24c0.07,0.06,0.16,0.08,0.25,0.08c0.14,0,0.27-0.06,0.37-0.17
			c0.1-0.11,0.16-0.23,0.16-0.37c0-0.18-0.09-0.35-0.27-0.49c-0.22-0.18-0.49-0.34-0.84-0.46c-0.15-0.05-0.3-0.09-0.46-0.12V6.34
			c0-0.16-0.05-0.29-0.15-0.4c-0.1-0.11-0.23-0.16-0.39-0.16c-0.16,0-0.29,0.05-0.4,0.16c-0.11,0.11-0.16,0.24-0.16,0.4v0.31
			c-0.25,0.03-0.49,0.1-0.71,0.19c-0.35,0.15-0.63,0.36-0.84,0.65c-0.21,0.28-0.31,0.62-0.31,1.03c0,0.26,0.04,0.5,0.13,0.72
			c0.09,0.21,0.21,0.4,0.38,0.55c0.17,0.16,0.38,0.29,0.63,0.39c0.21,0.08,0.45,0.15,0.71,0.2v1.81c-0.15-0.02-0.29-0.06-0.41-0.12
			c-0.23-0.1-0.46-0.24-0.7-0.43c-0.09-0.07-0.2-0.11-0.31-0.11c-0.15,0-0.28,0.05-0.38,0.16c-0.1,0.11-0.15,0.23-0.15,0.37
			c0,0.09,0.02,0.17,0.07,0.26c0.04,0.09,0.1,0.16,0.18,0.23c0.31,0.27,0.64,0.46,0.99,0.57c0.22,0.07,0.46,0.12,0.72,0.14v0.52
			c0,0.16,0.05,0.29,0.16,0.4c0.1,0.11,0.23,0.16,0.39,0.16c0.16,0,0.29-0.05,0.4-0.16c0.11-0.11,0.16-0.24,0.16-0.4v-0.57
			c0.17-0.04,0.34-0.09,0.5-0.16c0.36-0.15,0.65-0.37,0.87-0.66s0.33-0.63,0.33-1.03C20.86,11.02,20.82,10.75,20.72,10.53z
			 M17.91,9.2c-0.2-0.07-0.36-0.17-0.47-0.29c-0.11-0.12-0.16-0.27-0.16-0.46c0-0.15,0.05-0.29,0.14-0.41
			c0.09-0.12,0.23-0.21,0.41-0.28c0.07-0.02,0.14-0.05,0.22-0.06v1.53C18,9.24,17.95,9.22,17.91,9.2z M19.58,11.81
			c-0.11,0.11-0.25,0.2-0.43,0.27v-1.45c0.19,0.08,0.34,0.18,0.43,0.3c0.11,0.13,0.17,0.29,0.17,0.47
			C19.75,11.55,19.7,11.69,19.58,11.81z"/>
		<path class="st7" d="M26.7,9.83c0,0.49-0.04,0.96-0.13,1.43c-0.09,0.52-0.23,1.03-0.42,1.52c-0.29,0.76-0.69,1.47-1.2,2.11h-2
			c1.03-0.91,1.75-2.1,2.08-3.4c0,0,0,0,0,0c0.14-0.54,0.21-1.09,0.21-1.66c0-3.73-3.03-6.76-6.76-6.76c-3.73,0-6.76,3.03-6.76,6.76
			c0,0.06,0,0.12,0,0.18c0,0.06,0,0.12,0.01,0.17c0,0,0,0.01,0,0.01c0,0.04,0,0.08,0.01,0.13c0,0.05,0.01,0.11,0.01,0.16
			c0.01,0.06,0.01,0.12,0.02,0.18c0.01,0.07,0.02,0.14,0.03,0.21c0.01,0.07,0.02,0.14,0.03,0.21c0.02,0.14,0.06,0.27,0.09,0.41
			c0.33,1.31,1.05,2.49,2.08,3.4h-2c-0.51-0.64-0.91-1.36-1.2-2.11c-0.19-0.49-0.33-1-0.42-1.52c-0.08-0.47-0.13-0.95-0.13-1.43
			c0-4.53,3.69-8.22,8.22-8.22C23.02,1.61,26.7,5.3,26.7,9.83z"/>
		<path class="st4" d="M27.93,13.62c0,1.51-1.23,2.73-2.73,2.73H11.78c-1.51,0-2.73-1.22-2.73-2.73c0-0.98,0.53-1.87,1.35-2.36
			c0.09,0.52,0.23,1.03,0.42,1.52c-0.2,0.23-0.32,0.52-0.32,0.84c0,0.7,0.57,1.28,1.28,1.28h6.71c0,0,0,0,0,0h6.71
			c0.7,0,1.28-0.57,1.28-1.28c0-0.31-0.12-0.61-0.32-0.84c0.19-0.49,0.33-1,0.42-1.52C27.4,11.75,27.93,12.64,27.93,13.62z"/>
		<polygon class="st4" points="18.49,14.89 18.49,14.89 18.49,14.89 		"/>
		<polygon class="st4" points="25.04,11.49 25.04,11.49 25.04,11.49 		"/>
		<path class="st8" d="M24.21,9.9c0-3.16-2.56-5.72-5.72-5.72s-5.72,2.56-5.72,5.72c0,2.15,1.18,4.02,2.93,4.99h2.79
			c-2.75,0-4.99-2.24-4.99-4.99c0-2.75,2.24-5,5-5c2.75,0,5,2.24,5,5c0,2.75-2.24,4.99-4.99,4.99h2.79
			C23.03,13.91,24.21,12.04,24.21,9.9z"/>
		<path d="M18.49,15.62c0,0,0.01,0,0.01,0h-0.02C18.48,15.62,18.48,15.62,18.49,15.62z"/>
	</g>
</g>
</svg>
